<svg width="34" height="20" viewBox="0 0 34 20" fill="none" xmlns="http://www.w3.org/2000/svg">
<path d="M1.0185 8.15635L14.1313 0.31104C14.4557 0.113657 14.8271 0.00701261 15.2068 0.00224959C15.5865 -0.00251343 15.9605 0.0947795 16.2898 0.283963C16.647 0.491994 16.9429 0.790863 17.1472 1.15022C17.3516 1.50957 17.4572 1.91661 17.4534 2.32999V7.81824L30.0003 0.308957C30.3247 0.111574 30.6962 0.00492987 31.0759 0.00016685C31.4556 -0.00459617 31.8296 0.0926967 32.1588 0.28188C32.5161 0.489912 32.8119 0.78878 33.0163 1.14813C33.2206 1.50749 33.3263 1.91453 33.3224 2.32791V17.6714C33.3265 18.0849 33.2209 18.4921 33.0165 18.8516C32.8122 19.2111 32.5162 19.5101 32.1588 19.7181C31.8296 19.9073 31.4556 20.0046 31.0759 19.9998C30.6962 19.9951 30.3247 19.8884 30.0003 19.691L17.4534 12.1783V17.6686C17.4579 18.0826 17.3526 18.4904 17.1482 18.8504C16.9438 19.2104 16.6476 19.5099 16.2898 19.7181C15.9605 19.9073 15.5865 20.0046 15.2068 19.9998C14.8271 19.9951 14.4557 19.8884 14.1313 19.691L1.0185 11.8457C0.706768 11.6505 0.449768 11.3792 0.271615 11.0574C0.0934624 10.7355 0 10.3737 0 10.0059C0 9.63806 0.0934624 9.27625 0.271615 8.95444C0.449768 8.63262 0.706768 8.36134 1.0185 8.16607V8.15635Z" fill="#B1B2BE"/>
</svg>
