<svg width="34" height="20" viewBox="0 0 34 20" fill="none" xmlns="http://www.w3.org/2000/svg">
<path d="M32.304 11.8436L19.1912 19.689C18.8668 19.8863 18.4954 19.993 18.1157 19.9978C17.736 20.0025 17.362 19.9052 17.0327 19.716C16.6755 19.508 16.3797 19.2091 16.1753 18.8498C15.9709 18.4904 15.8653 18.0834 15.8691 17.67V12.1818L3.32218 19.691C2.99778 19.8884 2.62633 19.9951 2.24663 19.9998C1.86693 20.0046 1.49292 19.9073 1.16368 19.7181C0.806431 19.5101 0.510601 19.2112 0.306232 18.8519C0.10186 18.4925 -0.00376892 18.0855 6.86646e-05 17.6721V2.3286C-0.00396347 1.91509 0.101578 1.50788 0.305962 1.14838C0.510345 0.788881 0.806278 0.489914 1.16368 0.281879C1.49292 0.0926952 1.86693 -0.00459671 2.24663 0.000165939C2.62633 0.00492859 2.99778 0.111574 3.32218 0.308956L15.8691 7.82171L15.8691 2.33138C15.8646 1.9174 15.9699 1.50961 16.1743 1.14958C16.3787 0.789551 16.6749 0.490147 17.0327 0.281879C17.362 0.0926952 17.736 -0.00459671 18.1157 0.000165939C18.4954 0.00492859 18.8668 0.111574 19.1912 0.308956L32.304 8.15427C32.6157 8.34954 32.8727 8.62082 33.0509 8.94264C33.229 9.26445 33.3225 9.62626 33.3225 9.9941C33.3225 10.3619 33.229 10.7237 33.0509 11.0456C32.8727 11.3674 32.6157 11.6387 32.304 11.8339V11.8436Z" fill="#B1B2BE"/>
</svg>
