<svg width="94" height="130" viewBox="0 0 94 130" fill="none" xmlns="http://www.w3.org/2000/svg">
<path d="M35.591 0.824732C29.8665 -2.18374 18.5843 3.62936 15.3433 8.74699C13.8994 11.037 14.0016 12.6873 14.0016 13.6236V63.7142L56.3103 90L64.2664 85.6625V36.8804L20.8265 11.9779C23.1576 9.04864 28.4002 5.47668 32.3313 6.91129L71.0238 27.5736L71.0239 81.9172L79 77.572V23.2296L35.591 0.824732Z" fill="#DE2345"/>
<path d="M0.988 122V99.666H9.932V103.982H5.538V108.324H9.75V112.536H5.538V117.658H10.218V122H0.988ZM16.8508 122.208C13.0895 122.208 11.2088 120.301 11.2088 116.488L11.2348 114.98H15.7848L15.8108 117.216C15.8108 117.667 15.8975 118.013 16.0708 118.256C16.2442 118.481 16.5302 118.594 16.9288 118.594C17.5355 118.594 17.8388 118.1 17.8388 117.112C17.8388 116.384 17.6915 115.812 17.3968 115.396C17.1195 114.98 16.6688 114.538 16.0448 114.07L13.6268 112.198C12.7948 111.557 12.1968 110.898 11.8328 110.222C11.4688 109.529 11.2868 108.558 11.2868 107.31C11.2868 106.339 11.5382 105.516 12.0408 104.84C12.5608 104.147 13.2455 103.627 14.0948 103.28C14.9442 102.933 15.8888 102.76 16.9288 102.76C20.6208 102.76 22.4668 104.597 22.4668 108.272V108.636H17.7608V107.908C17.7608 107.457 17.6828 107.076 17.5268 106.764C17.3882 106.435 17.1455 106.27 16.7988 106.27C16.4868 106.27 16.2442 106.365 16.0708 106.556C15.9148 106.729 15.8368 106.972 15.8368 107.284C15.8368 107.977 16.1055 108.515 16.6428 108.896L19.4508 110.95C20.4562 111.695 21.2275 112.51 21.7648 113.394C22.3022 114.261 22.5708 115.361 22.5708 116.696C22.5708 118.464 22.0682 119.825 21.0628 120.778C20.0575 121.731 18.6535 122.208 16.8508 122.208ZM29.6847 122.208C27.6047 122.208 26.1054 121.679 25.1867 120.622C24.268 119.565 23.8087 117.944 23.8087 115.76V109.884C23.8087 108.237 23.982 106.903 24.3287 105.88C24.6927 104.84 25.2907 104.06 26.1227 103.54C26.972 103.02 28.142 102.76 29.6327 102.76C31.262 102.76 32.588 103.185 33.6107 104.034C34.6334 104.883 35.1447 106.071 35.1447 107.596V110.508H30.5167V107.83C30.5167 107.327 30.4474 106.946 30.3087 106.686C30.17 106.409 29.9014 106.27 29.5027 106.27C28.7574 106.27 28.3847 106.799 28.3847 107.856V117.086C28.3847 117.519 28.4714 117.892 28.6447 118.204C28.8354 118.499 29.1127 118.646 29.4767 118.646C29.8407 118.646 30.1094 118.499 30.2827 118.204C30.4734 117.909 30.56 117.528 30.5427 117.06L30.5167 113.862H35.1447V117.19C35.1447 118.75 34.6334 119.981 33.6107 120.882C32.6054 121.766 31.2967 122.208 29.6847 122.208ZM40.4022 122.208C38.9808 122.208 38.0015 121.783 37.4642 120.934C36.9442 120.085 36.6842 118.819 36.6842 117.138V102.968H41.2602V116.228C41.2602 116.349 41.2602 116.679 41.2602 117.216C41.2602 117.736 41.3382 118.109 41.4942 118.334C41.6675 118.542 41.9275 118.646 42.2742 118.646C42.7422 118.646 43.0368 118.455 43.1582 118.074C43.2795 117.675 43.3402 117.112 43.3402 116.384V116.228L43.3662 102.968H47.8902V122H43.3402V119.972C43.0282 120.769 42.6642 121.341 42.2482 121.688C41.8322 122.035 41.2168 122.208 40.4022 122.208ZM53.6368 122.208C52.4408 122.208 51.6174 121.957 51.1668 121.454C50.7161 120.951 50.4908 120.145 50.4908 119.036V107.154H49.2168V103.696H50.4908V99.666H54.9108V103.696H56.2108V107.154H54.9108V117.84C54.9108 118.169 54.9368 118.412 54.9888 118.568C55.0408 118.724 55.1794 118.802 55.4048 118.802C55.5781 118.802 55.7428 118.793 55.8988 118.776C56.0548 118.759 56.1588 118.75 56.2108 118.75V121.87C55.9508 121.939 55.5694 122.009 55.0668 122.078C54.5814 122.165 54.1048 122.208 53.6368 122.208ZM61.0907 122.208C59.6173 122.208 58.6033 121.723 58.0487 120.752C57.5113 119.764 57.2427 118.36 57.2427 116.54C57.2427 115.049 57.4333 113.905 57.8147 113.108C58.2133 112.311 58.7593 111.73 59.4527 111.366C60.146 110.985 61.2033 110.569 62.6247 110.118L63.8727 109.702V109.65V107.752C63.8727 107.249 63.7687 106.868 63.5607 106.608C63.37 106.331 63.136 106.192 62.8587 106.192C62.616 106.192 62.3993 106.305 62.2087 106.53C62.0353 106.755 61.9487 107.059 61.9487 107.44V108.584H57.5287V107.96C57.5287 106.088 57.962 104.753 58.8287 103.956C59.7127 103.159 61.1427 102.76 63.1187 102.76C64.696 102.76 65.9787 103.176 66.9667 104.008C67.9547 104.823 68.4487 105.984 68.4487 107.492V122H63.9247V119.738C63.6993 120.518 63.3353 121.125 62.8327 121.558C62.3473 121.991 61.7667 122.208 61.0907 122.208ZM62.8847 118.672C63.2313 118.672 63.474 118.533 63.6127 118.256C63.7687 117.961 63.8467 117.606 63.8467 117.19V111.886C63.1707 112.146 62.668 112.475 62.3387 112.874C62.0267 113.273 61.8707 113.827 61.8707 114.538V116.982C61.8707 118.109 62.2087 118.672 62.8847 118.672ZM69.681 122L71.839 99.666H79.405L81.537 122H77.299L76.987 118.386H74.283L74.023 122H69.681ZM74.621 114.824H76.649L75.661 103.462H75.453L74.621 114.824ZM82.8982 122V99.666H91.8422V103.982H87.4482V108.324H91.6602V112.536H87.4482V117.658H92.1282V122H82.8982ZM81.9102 98.496L84.9522 93.374H90.1262L93.1942 98.496H88.6442L87.5522 94.882L86.4602 98.496H81.9102Z" fill="#E4E5EC"/>
</svg>
