<svg width="157" height="250" viewBox="0 0 157 250" fill="none" xmlns="http://www.w3.org/2000/svg">
<g opacity="0.2">
<path d="M31.25 46.875C31.25 34.443 36.1886 22.5201 44.9794 13.7294C53.7701 4.9386 65.693 0 78.125 0C90.557 0 102.48 4.9386 111.271 13.7294C120.061 22.5201 125 34.443 125 46.875V125C125 137.432 120.061 149.355 111.271 158.146C102.48 166.936 90.557 171.875 78.125 171.875C65.693 171.875 53.7701 166.936 44.9794 158.146C36.1886 149.355 31.25 137.432 31.25 125V46.875Z" fill="#B1B2BE"/>
<path fill-rule="evenodd" clip-rule="evenodd" d="M7.8125 101.562C9.8845 101.562 11.8716 102.386 13.3368 103.851C14.8019 105.316 15.625 107.303 15.625 109.375V125C15.625 141.576 22.2098 157.473 33.9308 169.194C45.6518 180.915 61.549 187.5 78.125 187.5C94.701 187.5 110.598 180.915 122.319 169.194C134.04 157.473 140.625 141.576 140.625 125V109.375C140.625 107.303 141.448 105.316 142.913 103.851C144.378 102.386 146.365 101.562 148.438 101.562C150.51 101.562 152.497 102.386 153.962 103.851C155.427 105.316 156.25 107.303 156.25 109.375V125C156.25 144.368 149.057 163.045 136.064 177.408C123.072 191.772 105.208 200.798 85.9375 202.734V234.375H132.812C134.885 234.375 136.872 235.198 138.337 236.663C139.802 238.128 140.625 240.116 140.625 242.188C140.625 244.26 139.802 246.247 138.337 247.712C136.872 249.177 134.885 250 132.812 250H23.4375C21.3655 250 19.3784 249.177 17.9132 247.712C16.4481 246.247 15.625 244.26 15.625 242.188C15.625 240.116 16.4481 238.128 17.9132 236.663C19.3784 235.198 21.3655 234.375 23.4375 234.375H70.3125V202.734C51.0419 200.798 33.1777 191.772 20.1856 177.408C7.1935 163.045 -0.000243307 144.368 6.17197e-09 125V109.375C6.17197e-09 107.303 0.823102 105.316 2.28823 103.851C3.75336 102.386 5.7405 101.562 7.8125 101.562Z" fill="#B1B2BE"/>
</g>
<path d="M65.6162 103.252C65.6162 99.8475 66.9688 96.5821 69.3764 94.1745C71.784 91.7669 75.0494 90.4143 78.4542 90.4143C81.859 90.4143 85.1244 91.7669 87.532 94.1745C89.9396 96.5821 91.2922 99.8475 91.2922 103.252V124.649C91.2922 128.054 89.9396 131.319 87.532 133.727C85.1244 136.134 81.859 137.487 78.4542 137.487C75.0494 137.487 71.784 136.134 69.3764 133.727C66.9688 131.319 65.6162 128.054 65.6162 124.649V103.252Z" fill="#DE2345"/>
<path fill-rule="evenodd" clip-rule="evenodd" d="M59.1972 118.23C59.7647 118.23 60.3089 118.455 60.7102 118.857C61.1115 119.258 61.3369 119.802 61.3369 120.37V124.649C61.3369 129.189 63.1403 133.543 66.3504 136.753C69.5606 139.963 73.9144 141.766 78.4542 141.766C82.994 141.766 87.3478 139.963 90.5579 136.753C93.768 133.543 95.5715 129.189 95.5715 124.649V120.37C95.5715 119.802 95.7969 119.258 96.1981 118.857C96.5994 118.455 97.1436 118.23 97.7111 118.23C98.2786 118.23 98.8228 118.455 99.2241 118.857C99.6253 119.258 99.8508 119.802 99.8508 120.37V124.649C99.8508 129.953 97.8806 135.069 94.3224 139.002C90.7642 142.936 85.8716 145.408 80.5938 145.939V154.604H93.4318C93.9993 154.604 94.5435 154.83 94.9448 155.231C95.346 155.632 95.5715 156.176 95.5715 156.744C95.5715 157.311 95.346 157.855 94.9448 158.257C94.5435 158.658 93.9993 158.883 93.4318 158.883H63.4766C62.9091 158.883 62.3649 158.658 61.9636 158.257C61.5623 157.855 61.3369 157.311 61.3369 156.744C61.3369 156.176 61.5623 155.632 61.9636 155.231C62.3649 154.83 62.9091 154.604 63.4766 154.604H76.3145V145.939C71.0368 145.408 66.1442 142.936 62.586 139.002C59.0277 135.069 57.0575 129.953 57.0576 124.649V120.37C57.0576 119.802 57.283 119.258 57.6843 118.857C58.0855 118.455 58.6298 118.23 59.1972 118.23Z" fill="#DE2345"/>
</svg>
