<svg width="20" height="24" viewBox="0 0 20 24" fill="none" xmlns="http://www.w3.org/2000/svg">
<path d="M5.68273 0H1.31727C0.589763 0 0 0.794375 0 1.77429V22.2257C0 23.2056 0.589763 24 1.31727 24H5.68273C6.41024 24 7 23.2056 7 22.2257V1.77429C7 0.794375 6.41024 0 5.68273 0Z" fill="white"/>
<path d="M17.7255 0H13.36C12.6325 0 12.0427 0.794375 12.0427 1.77429V22.2257C12.0427 23.2056 12.6325 24 13.36 24H17.7255C18.453 24 19.0427 23.2056 19.0427 22.2257V1.77429C19.0427 0.794375 18.453 0 17.7255 0Z" fill="white"/>
</svg>
