<svg width="226" height="158" viewBox="0 0 226 158" fill="none" xmlns="http://www.w3.org/2000/svg">
<path d="M90.2414 1.00801C83.2839 -2.66902 69.5717 4.43588 65.6326 10.6908C63.8777 13.4897 64.0019 15.5067 64.0019 16.6511V77.8729L115.423 110L125.093 104.699V45.076L72.2969 14.6397C75.13 11.0594 81.5018 6.69373 86.2796 8.44713L133.306 33.7011L133.306 100.121L143 94.8102V28.3917L90.2414 1.00801Z" fill="#DE2345"/>
<path d="M12.922 144.542H5.694L4.498 148H0.676L7.202 129.826H11.44L17.966 148H14.118L12.922 144.542ZM11.934 141.63L9.308 134.038L6.682 141.63H11.934ZM24.0453 135.832C24.5133 135.069 25.12 134.471 25.8653 134.038C26.628 133.605 27.4947 133.388 28.4653 133.388V137.21H27.5033C26.3593 137.21 25.4927 137.479 24.9033 138.016C24.3313 138.553 24.0453 139.489 24.0453 140.824V148H20.4053V133.596H24.0453V135.832ZM35.155 136.586V143.554C35.155 144.039 35.2677 144.395 35.493 144.62C35.7357 144.828 36.1344 144.932 36.689 144.932H38.379V148H36.091C33.023 148 31.489 146.509 31.489 143.528V136.586H29.773V133.596H31.489V130.034H35.155V133.596H38.379V136.586H35.155ZM54.3871 140.486C54.3871 141.006 54.3525 141.474 54.2831 141.89H43.7531C43.8398 142.93 44.2038 143.745 44.8451 144.334C45.4865 144.923 46.2751 145.218 47.2111 145.218C48.5631 145.218 49.5251 144.637 50.0971 143.476H54.0231C53.6071 144.863 52.8098 146.007 51.6311 146.908C50.4525 147.792 49.0051 148.234 47.2891 148.234C45.9025 148.234 44.6545 147.931 43.5451 147.324C42.4531 146.7 41.5951 145.825 40.9711 144.698C40.3645 143.571 40.0611 142.271 40.0611 140.798C40.0611 139.307 40.3645 137.999 40.9711 136.872C41.5778 135.745 42.4271 134.879 43.5191 134.272C44.6111 133.665 45.8678 133.362 47.2891 133.362C48.6585 133.362 49.8805 133.657 50.9551 134.246C52.0471 134.835 52.8878 135.676 53.4771 136.768C54.0838 137.843 54.3871 139.082 54.3871 140.486ZM50.6171 139.446C50.5998 138.51 50.2618 137.765 49.6031 137.21C48.9445 136.638 48.1385 136.352 47.1851 136.352C46.2838 136.352 45.5211 136.629 44.8971 137.184C44.2905 137.721 43.9178 138.475 43.7791 139.446H50.6171ZM62.3033 140.746C62.3033 139.29 62.5893 137.999 63.1613 136.872C63.7506 135.745 64.548 134.879 65.5533 134.272C66.5586 133.665 67.6766 133.362 68.9073 133.362C69.8433 133.362 70.736 133.57 71.5853 133.986C72.4346 134.385 73.1106 134.922 73.6133 135.598V128.76H77.3053V148H73.6133V145.868C73.1626 146.579 72.53 147.151 71.7153 147.584C70.9006 148.017 69.956 148.234 68.8813 148.234C67.668 148.234 66.5586 147.922 65.5533 147.298C64.548 146.674 63.7506 145.799 63.1613 144.672C62.5893 143.528 62.3033 142.219 62.3033 140.746ZM73.6393 140.798C73.6393 139.914 73.466 139.16 73.1193 138.536C72.7726 137.895 72.3046 137.409 71.7153 137.08C71.126 136.733 70.4933 136.56 69.8173 136.56C69.1413 136.56 68.5173 136.725 67.9453 137.054C67.3733 137.383 66.9053 137.869 66.5413 138.51C66.1946 139.134 66.0213 139.879 66.0213 140.746C66.0213 141.613 66.1946 142.375 66.5413 143.034C66.9053 143.675 67.3733 144.169 67.9453 144.516C68.5346 144.863 69.1586 145.036 69.8173 145.036C70.4933 145.036 71.126 144.871 71.7153 144.542C72.3046 144.195 72.7726 143.71 73.1193 143.086C73.466 142.445 73.6393 141.682 73.6393 140.798ZM94.2504 140.486C94.2504 141.006 94.2157 141.474 94.1464 141.89H83.6164C83.7031 142.93 84.0671 143.745 84.7084 144.334C85.3497 144.923 86.1384 145.218 87.0744 145.218C88.4264 145.218 89.3884 144.637 89.9604 143.476H93.8864C93.4704 144.863 92.6731 146.007 91.4944 146.908C90.3157 147.792 88.8684 148.234 87.1524 148.234C85.7657 148.234 84.5177 147.931 83.4084 147.324C82.3164 146.7 81.4584 145.825 80.8344 144.698C80.2277 143.571 79.9244 142.271 79.9244 140.798C79.9244 139.307 80.2277 137.999 80.8344 136.872C81.4411 135.745 82.2904 134.879 83.3824 134.272C84.4744 133.665 85.7311 133.362 87.1524 133.362C88.5217 133.362 89.7437 133.657 90.8184 134.246C91.9104 134.835 92.7511 135.676 93.3404 136.768C93.9471 137.843 94.2504 139.082 94.2504 140.486ZM90.4804 139.446C90.4631 138.51 90.1251 137.765 89.4664 137.21C88.8077 136.638 88.0017 136.352 87.0484 136.352C86.1471 136.352 85.3844 136.629 84.7604 137.184C84.1537 137.721 83.7811 138.475 83.6424 139.446H90.4804ZM114.231 144.542H107.003L105.807 148H101.985L108.511 129.826H112.749L119.275 148H115.427L114.231 144.542ZM113.243 141.63L110.617 134.038L107.991 141.63H113.243ZM125.354 135.676C125.822 135.017 126.463 134.471 127.278 134.038C128.11 133.587 129.055 133.362 130.112 133.362C131.343 133.362 132.452 133.665 133.44 134.272C134.445 134.879 135.234 135.745 135.806 136.872C136.395 137.981 136.69 139.273 136.69 140.746C136.69 142.219 136.395 143.528 135.806 144.672C135.234 145.799 134.445 146.674 133.44 147.298C132.452 147.922 131.343 148.234 130.112 148.234C129.055 148.234 128.119 148.017 127.304 147.584C126.507 147.151 125.857 146.605 125.354 145.946V154.864H121.714V133.596H125.354V135.676ZM132.972 140.746C132.972 139.879 132.79 139.134 132.426 138.51C132.079 137.869 131.611 137.383 131.022 137.054C130.45 136.725 129.826 136.56 129.15 136.56C128.491 136.56 127.867 136.733 127.278 137.08C126.706 137.409 126.238 137.895 125.874 138.536C125.527 139.177 125.354 139.931 125.354 140.798C125.354 141.665 125.527 142.419 125.874 143.06C126.238 143.701 126.706 144.195 127.278 144.542C127.867 144.871 128.491 145.036 129.15 145.036C129.826 145.036 130.45 144.863 131.022 144.516C131.611 144.169 132.079 143.675 132.426 143.034C132.79 142.393 132.972 141.63 132.972 140.746ZM142.975 135.832C143.443 135.069 144.05 134.471 144.795 134.038C145.558 133.605 146.424 133.388 147.395 133.388V137.21H146.433C145.289 137.21 144.422 137.479 143.833 138.016C143.261 138.553 142.975 139.489 142.975 140.824V148H139.335V133.596H142.975V135.832ZM163.237 140.486C163.237 141.006 163.202 141.474 163.133 141.89H152.603C152.689 142.93 153.053 143.745 153.695 144.334C154.336 144.923 155.125 145.218 156.061 145.218C157.413 145.218 158.375 144.637 158.947 143.476H162.873C162.457 144.863 161.659 146.007 160.481 146.908C159.302 147.792 157.855 148.234 156.139 148.234C154.752 148.234 153.504 147.931 152.395 147.324C151.303 146.7 150.445 145.825 149.821 144.698C149.214 143.571 148.911 142.271 148.911 140.798C148.911 139.307 149.214 137.999 149.821 136.872C150.427 135.745 151.277 134.879 152.369 134.272C153.461 133.665 154.717 133.362 156.139 133.362C157.508 133.362 158.73 133.657 159.805 134.246C160.897 134.835 161.737 135.676 162.327 136.768C162.933 137.843 163.237 139.082 163.237 140.486ZM159.467 139.446C159.449 138.51 159.111 137.765 158.453 137.21C157.794 136.638 156.988 136.352 156.035 136.352C155.133 136.352 154.371 136.629 153.747 137.184C153.14 137.721 152.767 138.475 152.629 139.446H159.467ZM173.876 133.388C175.592 133.388 176.978 133.934 178.036 135.026C179.093 136.101 179.622 137.609 179.622 139.55V148H175.982V140.044C175.982 138.9 175.696 138.025 175.124 137.418C174.552 136.794 173.772 136.482 172.784 136.482C171.778 136.482 170.981 136.794 170.392 137.418C169.82 138.025 169.534 138.9 169.534 140.044V148H165.894V133.596H169.534V135.39C170.019 134.766 170.634 134.281 171.38 133.934C172.142 133.57 172.974 133.388 173.876 133.388ZM182.147 140.746C182.147 139.29 182.433 137.999 183.005 136.872C183.594 135.745 184.392 134.879 185.397 134.272C186.402 133.665 187.52 133.362 188.751 133.362C189.687 133.362 190.58 133.57 191.429 133.986C192.278 134.385 192.954 134.922 193.457 135.598V128.76H197.149V148H193.457V145.868C193.006 146.579 192.374 147.151 191.559 147.584C190.744 148.017 189.8 148.234 188.725 148.234C187.512 148.234 186.402 147.922 185.397 147.298C184.392 146.674 183.594 145.799 183.005 144.672C182.433 143.528 182.147 142.219 182.147 140.746ZM193.483 140.798C193.483 139.914 193.31 139.16 192.963 138.536C192.616 137.895 192.148 137.409 191.559 137.08C190.97 136.733 190.337 136.56 189.661 136.56C188.985 136.56 188.361 136.725 187.789 137.054C187.217 137.383 186.749 137.869 186.385 138.51C186.038 139.134 185.865 139.879 185.865 140.746C185.865 141.613 186.038 142.375 186.385 143.034C186.749 143.675 187.217 144.169 187.789 144.516C188.378 144.863 189.002 145.036 189.661 145.036C190.337 145.036 190.97 144.871 191.559 144.542C192.148 144.195 192.616 143.71 192.963 143.086C193.31 142.445 193.483 141.682 193.483 140.798ZM214.094 140.486C214.094 141.006 214.059 141.474 213.99 141.89H203.46C203.547 142.93 203.911 143.745 204.552 144.334C205.193 144.923 205.982 145.218 206.918 145.218C208.27 145.218 209.232 144.637 209.804 143.476H213.73C213.314 144.863 212.517 146.007 211.338 146.908C210.159 147.792 208.712 148.234 206.996 148.234C205.609 148.234 204.361 147.931 203.252 147.324C202.16 146.7 201.302 145.825 200.678 144.698C200.071 143.571 199.768 142.271 199.768 140.798C199.768 139.307 200.071 137.999 200.678 136.872C201.285 135.745 202.134 134.879 203.226 134.272C204.318 133.665 205.575 133.362 206.996 133.362C208.365 133.362 209.587 133.657 210.662 134.246C211.754 134.835 212.595 135.676 213.184 136.768C213.791 137.843 214.094 139.082 214.094 140.486ZM210.324 139.446C210.307 138.51 209.969 137.765 209.31 137.21C208.651 136.638 207.845 136.352 206.892 136.352C205.991 136.352 205.228 136.629 204.604 137.184C203.997 137.721 203.625 138.475 203.486 139.446H210.324ZM220.391 135.832C220.859 135.069 221.466 134.471 222.211 134.038C222.974 133.605 223.84 133.388 224.811 133.388V137.21H223.849C222.705 137.21 221.838 137.479 221.249 138.016C220.677 138.553 220.391 139.489 220.391 140.824V148H216.751V133.596H220.391V135.832Z" fill="#E4E5EC"/>
</svg>
